<svg width="1994" height="693" viewBox="0 0 1994 693" fill="none" xmlns="http://www.w3.org/2000/svg">
<path d="M437 353C449.5 216.5 1 1 1 1V623.5L1993 691.5V55C1993 55 1244.5 122.5 1184 150C1123.5 177.5 1194 242.5 1071 322.5C948 402.5 854 190 814 336.5C774 483 424.5 489.5 437 353Z" fill="#1E78CE"/>
<path d="M437 353C449.5 216.5 1 1 1 1V623.5L1993 691.5V55C1993 55 1244.5 122.5 1184 150C1123.5 177.5 1194 242.5 1071 322.5C948 402.5 854 190 814 336.5C774 483 424.5 489.5 437 353Z" fill="url(#paint0_linear)"/>
<path d="M437 353C449.5 216.5 1 1 1 1V623.5L1993 691.5V55C1993 55 1244.5 122.5 1184 150C1123.5 177.5 1194 242.5 1071 322.5C948 402.5 854 190 814 336.5C774 483 424.5 489.5 437 353Z" stroke="white"/>
<defs>
<linearGradient id="paint0_linear" x1="997" y1="1" x2="997" y2="691.5" gradientUnits="userSpaceOnUse">
<stop stop-color="#000693"/>
<stop offset="1" stop-color="white" stop-opacity="0"/>
</linearGradient>
</defs>
</svg>
